<svg id="レイヤー_1" data-name="レイヤー 1" xmlns="http://www.w3.org/2000/svg" viewBox="0 0 1231.6 275.19"><defs><style>.cls-1{fill:#0bd;}.cls-2{fill:#f6f0cc;}.cls-3{fill:#fff;}.cls-4{fill:#9e5e36;}.cls-5{fill:#432;}</style></defs><ellipse class="cls-1" cx="298.05" cy="150.8" rx="158.11" ry="113.23"/><path class="cls-2" d="M199.83,241.39s-70.68-37.7-67-101S215,44,215,44,317.63,2.12,404,59.71s44.5,126.7,44.5,126.7S487.79,78.56,334.91,44c0,0-95.29-23-167.54,49.21S199.83,241.39,199.83,241.39Z"/><path class="cls-3" d="M263.71,91.78S180.46,115.34,182,145.71s17.8,34.55,17.8,34.55-13.13-2.09-17.82,3.15C182,183.41,112.4,128.43,263.71,91.78Z"/><path class="cls-2" d="M228.13,180.64s54.56-.58,89,33.27-102.3-10.47-102.3-10.47Z"/><path class="cls-3" d="M240.67,106.31c1.45,1.69,11.31-1.73,12.73-2.12,20.28-5.51,39.61-14.26,58.77-22.67,15.82-7,36.74-8.55,51.56,1.85,10,7,15.35,18.57,17.78,30.27,0,0,49.74-20.47,66.49,21.7,0,0,13.61,54.22-71.73,52.64v35.61s-30.89-21-54.45-19.9l-4-5.3s43.75,4.26,51.12,13.36v-7.94s-22.47-14.52-37.76-14.52c0,0,28.07,1.94,38,11.23V190.26s-20.33-22.85-109.6-15.69c0,0-8,5.23-18.83-6.19s-12.54-18.58-12.54-18.58,15.69,17.8,33.31,18.19a74.43,74.43,0,0,0,28.66,1.36,32,32,0,0,0,22.84-15.3l.78,13s22.65,4.65,32.53-29.24c0,0,5,10.85-2.9,29.63,0,0,17.81,4.84,31.75-11,0,0-2.32,13.36-7.16,17,0,0,6.58,15.3,50.15,1.75,0,0,25-11.27,22.85-32.92s-16.85-24-16.85-24-21.18-7.75-50.92,9.87c1.48-.88-.47-11.26-.7-12.56-1.46-8.43-5.05-16.66-11.5-22.47a34.34,34.34,0,0,0-23.14-8.68A59.64,59.64,0,0,0,328,85.64c-4.72.88-9.42,1.84-14,3.15s-8.67,3.4-13,5.48a201.21,201.21,0,0,1-27.26,10.59,110.36,110.36,0,0,1-17.49,4C251.13,109.58,244.43,110.7,240.67,106.31Z"/><path class="cls-4" d="M302.1,201.1a63.74,63.74,0,0,1,11.61,9c5.08,4.86,15.18,15.92,11.46,23.71a8.49,8.49,0,0,1-4.64,4c-8.46,3.39-19.79,1.51-28.4-.5q-21.17-4.94-42.08-10.91c-12.64-3.65-25.59-6.83-37.39-12.81-7.1-3.6-21.88-12.58-17.77-22.74a9.93,9.93,0,0,1,2.84-3.51s10.65-10.26,37.18-7.16c-.93-.11-5,5.53-5.66,6.32-.93,1.2-4.65,6-2.07,7.4,3.55,1.93,11.52-11.16,12.76-12.94.27-.39,4.95.21,5.54.25a72.34,72.34,0,0,1,7.2.78c4.46.71,10.26,1.52,14.17,3.86-.8,2-13.58,16.1-8.2,17.37,1.51.36,3.41-2.13,4.19-3,3.43-4,6.09-8.69,8.67-13.23,0,0,23.62,7.55,25.56,11.23-1.32,2.09-8.62,9.91-4.13,12.12C296.72,212.18,301.68,200.86,302.1,201.1Z"/><path class="cls-5" d="M506.52,181.16a24.87,24.87,0,0,1-9.34-4.65,8.83,8.83,0,0,1-3.62-6.91V158h1.94q1.85,10.8,7.13,15.61t14.58,4.81a17,17,0,0,0,10-2.92,9.35,9.35,0,0,0,4.16-8.1,11.92,11.92,0,0,0-2.81-7.89,35.28,35.28,0,0,0-9.08-7l-13.28-7.88q-6.92-4.11-9.78-8.32a17.82,17.82,0,0,1-2.86-10.26q0-8.32,5.78-13.34t15.17-5a39.1,39.1,0,0,1,10.91,1.57,24,24,0,0,1,8.91,4.54,8.8,8.8,0,0,1,3.52,6.86v11.55h-2q-1.83-10.8-7-15.5T514.51,112a13.58,13.58,0,0,0-8.75,3,9.62,9.62,0,0,0-3.78,7.88,10.26,10.26,0,0,0,2.76,7.35,45.35,45.35,0,0,0,9.23,6.81L527.26,145q7.35,4.42,10.37,8.21a14.87,14.87,0,0,1,3,9.61q0,9.08-6,14.53t-16.42,5.46A42.69,42.69,0,0,1,506.52,181.16Z"/><path class="cls-5" d="M560.42,178.51a21.82,21.82,0,0,1-7.67-9.51,36.06,36.06,0,0,1,0-26.84,22.18,22.18,0,0,1,7.51-9.56,19.26,19.26,0,0,1,11.5-3.51q10.92,0,16.26,6.11t5.35,17.66l-.22,4.32H560.42q0,9.07,3.89,14.8A12.26,12.26,0,0,0,575,177.7a16.09,16.09,0,0,0,8.59-2.16,22.63,22.63,0,0,0,6.53-6.48l2.17,1.62a23.5,23.5,0,0,1-8.32,8.64,22.16,22.16,0,0,1-11.13,2.7A21.29,21.29,0,0,1,560.42,178.51Zm22.68-25.65q0-9.51-2.8-14.48a9.2,9.2,0,0,0-8.54-5,8.15,8.15,0,0,0-5.83,2.54,17,17,0,0,0-4,7,31.71,31.71,0,0,0-1.46,9.94Z"/><path class="cls-5" d="M610.86,180.56a14.49,14.49,0,0,1-6.1-4.8,14.33,14.33,0,0,1-2.54-8.86q0-8.21,7.62-11.67t19.93-3.45H633q0-10.59-2.92-14.48a9.88,9.88,0,0,0-8.42-3.89,13.23,13.23,0,0,0-7.78,2.06c-1.95,1.36-3.31,3.74-4.11,7.12h-4.86a29.86,29.86,0,0,1,.44-5.77,7.78,7.78,0,0,1,2.26-3.95c1.3-1.29,3.44-2.25,6.43-2.86a49,49,0,0,1,9.78-.92q8.74,0,13.82,4.7t5.08,18v29.16h-5.4l-3.78-4.86H633a15,15,0,0,1-5.73,4.21,22.61,22.61,0,0,1-9.4,1.73A18.52,18.52,0,0,1,610.86,180.56Zm17.83-5.13a17.44,17.44,0,0,0,4.32-4.75V156.1h-3.24q-8,0-12.64,3t-4.65,7.83q0,5,3,7.61a10.52,10.52,0,0,0,7.29,2.65A9.87,9.87,0,0,0,628.69,175.43Z"/><path class="cls-5" d="M658,177.7a7.79,7.79,0,0,1-2.27-4.16,42.9,42.9,0,0,1-.43-7.18h2.16a13.24,13.24,0,0,0,4.7,8.37q3.72,3,10.42,3,5.94,0,8.91-2a6.39,6.39,0,0,0,3-5.51,7.27,7.27,0,0,0-2.32-5.4,23.25,23.25,0,0,0-7.4-4.32l-6.48-2.7a26.92,26.92,0,0,1-9.72-6.05,12,12,0,0,1-3.24-8.54,12.14,12.14,0,0,1,5-10.31q5-3.73,12.85-3.73,11.88,0,16.2,4.32a7.84,7.84,0,0,1,2.27,4.11,42.7,42.7,0,0,1,.43,7.23h-2.16a12.93,12.93,0,0,0-4.53-8.37q-3.67-3-10-3-5.07,0-7.94,2.11a6.47,6.47,0,0,0-2.86,5.45q0,5.63,8.64,9.19l6.48,2.7q7.35,3,10.7,6.42a12.82,12.82,0,0,1-2,19Q683,182,674.7,182,662.28,182,658,177.7Z"/><path class="cls-5" d="M707.54,143.13c0-3.67-.51-6.39-1.51-8.15s-3-2.65-6-2.65h-2.16v-2.16h9.72a13.48,13.48,0,0,1,6,1,6,6,0,0,1,2.87,3.73,29.09,29.09,0,0,1,.86,8.2v37.81h-9.72Zm-.16-21.49a7.18,7.18,0,0,1-1.79-4.86,4.73,4.73,0,0,1,1.35-3.57,5,5,0,0,1,3.62-1.29,5.47,5.47,0,0,1,4.27,2,7.17,7.17,0,0,1,1.78,4.86,4.7,4.7,0,0,1-1.35,3.56,5,5,0,0,1-3.62,1.3A5.45,5.45,0,0,1,707.38,121.64Z"/><path class="cls-5" d="M734.81,174.57q-5-7.45-5-19t5.24-19q5.24-7.45,15.28-7.46a27.15,27.15,0,0,1,7.24.87,36.36,36.36,0,0,1,6.26,2.37v-9.72q0-5.51-1.51-8.15c-1-1.77-3-2.65-6-2.65h-2.16v-2.16h9.72a13.5,13.5,0,0,1,6,1,6,6,0,0,1,2.86,3.72,28.73,28.73,0,0,1,.87,8.21v58.33h-5.41l-3.78-4.86h-.54a18.41,18.41,0,0,1-5.56,4.32q-3.18,1.62-9,1.62Q739.84,182,734.81,174.57Zm24.36,1.51a21.6,21.6,0,0,0,4.64-4.86V136.65c-2.16-1-4-1.8-5.61-2.37a13.48,13.48,0,0,0-4.65-.87,10.88,10.88,0,0,0-10.21,6.05q-3.29,6.06-3.29,16.1t3.13,16q3.14,6.1,9.29,6.1C755.42,177.7,757.66,177.16,759.17,176.08Z"/><path class="cls-5" d="M796.43,178.51a21.82,21.82,0,0,1-7.67-9.51,36.06,36.06,0,0,1,0-26.84,22.18,22.18,0,0,1,7.51-9.56,19.29,19.29,0,0,1,11.51-3.51q10.9,0,16.25,6.11t5.35,17.66l-.22,4.32H796.43q0,9.07,3.89,14.8A12.28,12.28,0,0,0,811,177.7a16.07,16.07,0,0,0,8.58-2.16,22.78,22.78,0,0,0,6.54-6.48l2.16,1.62a23.5,23.5,0,0,1-8.32,8.64,22.15,22.15,0,0,1-11.12,2.7A21.34,21.34,0,0,1,796.43,178.51Zm22.69-25.65q0-9.51-2.81-14.48a9.19,9.19,0,0,0-8.53-5,8.17,8.17,0,0,0-5.84,2.54,17,17,0,0,0-4.05,7,31.71,31.71,0,0,0-1.46,9.94Z"/><path class="cls-5" d="M872.48,122.61c0-3.67-.51-6.39-1.51-8.15s-3-2.65-6.05-2.65h-2.16v-2.16h28.08a49.84,49.84,0,0,1,20.47,3.89q8.7,3.88,8.7,15a13.9,13.9,0,0,1-3.46,9.18c-2.31,2.74-5.83,4.9-10.59,6.48q9.94,1.62,13.88,5.89c2.63,2.85,3.95,6.64,3.95,11.4q0,10.91-8.59,15.17t-21.12,4.27h-21.6Zm20,20a21.13,21.13,0,0,0,8.37-1.67,15.48,15.48,0,0,0,6.43-5,12.76,12.76,0,0,0,2.48-7.94,11.85,11.85,0,0,0-2.91-8.15,17.24,17.24,0,0,0-7.4-4.86,27.35,27.35,0,0,0-9.13-1.57,33.48,33.48,0,0,0-8.1,1.08v28.08Zm15.18,30.68Q913,169.39,913,162t-5.24-11.24q-5.25-3.88-15.29-3.89H882.2v28.74a36.48,36.48,0,0,0,10.26,1.51Q902.29,177.16,907.64,173.27Z"/><path class="cls-5" d="M941.07,180.56a14.43,14.43,0,0,1-6.1-4.8,14.27,14.27,0,0,1-2.54-8.86q0-8.21,7.61-11.67T960,151.78h3.24q0-10.59-2.91-14.48a9.92,9.92,0,0,0-8.43-3.89,13.27,13.27,0,0,0-7.78,2.06c-1.94,1.36-3.31,3.74-4.1,7.12h-4.86a30,30,0,0,1,.43-5.77,7.8,7.8,0,0,1,2.27-3.95c1.29-1.29,3.44-2.25,6.43-2.86a48.77,48.77,0,0,1,9.77-.92q8.75,0,13.83,4.7t5.07,18v29.16h-5.4l-3.78-4.86h-.54a14.89,14.89,0,0,1-5.72,4.21,22.65,22.65,0,0,1-9.4,1.73A18.48,18.48,0,0,1,941.07,180.56Zm17.82-5.13a17.13,17.13,0,0,0,4.32-4.75V156.1H960q-8,0-12.64,3t-4.64,7.83q0,5,3,7.61a10.54,10.54,0,0,0,7.29,2.65A9.83,9.83,0,0,0,958.89,175.43Z"/><path class="cls-5" d="M1010.63,173.38l-13-17.28v24.84H988V122.61q0-5.51-1.52-8.15c-1-1.77-3-2.65-6-2.65h-2.16v-2.16H988a13.48,13.48,0,0,1,6,1,5.93,5.93,0,0,1,2.86,3.72,28.73,28.73,0,0,1,.87,8.21v31.87l13.5-17.29a21.51,21.51,0,0,1,5.94-5.24,16.36,16.36,0,0,1,8.1-1.78h3.24v2.7a13.82,13.82,0,0,0-5.61,1.19,12.06,12.06,0,0,0-4.65,3.67l-11.88,15.13,13.5,17.28a31.42,31.42,0,0,0,5.89,6.16,13.78,13.78,0,0,0,6,2.59v2.05a12.89,12.89,0,0,1-5.4,1.08Q1017.11,182,1010.63,173.38Z"/><path class="cls-5" d="M1047.68,178.51A21.75,21.75,0,0,1,1040,169a36.06,36.06,0,0,1,0-26.84,22.18,22.18,0,0,1,7.51-9.56,19.26,19.26,0,0,1,11.5-3.51q10.9,0,16.26,6.11t5.34,17.66l-.21,4.32h-32.73q0,9.07,3.89,14.8a12.25,12.25,0,0,0,10.69,5.72,16.09,16.09,0,0,0,8.59-2.16,22.63,22.63,0,0,0,6.53-6.48l2.16,1.62a23.4,23.4,0,0,1-8.31,8.64,22.16,22.16,0,0,1-11.13,2.7A21.29,21.29,0,0,1,1047.68,178.51Zm22.68-25.65q0-9.51-2.81-14.48a9.18,9.18,0,0,0-8.53-5,8.15,8.15,0,0,0-5.83,2.54,17,17,0,0,0-4,7,31.71,31.71,0,0,0-1.46,9.94Z"/><path class="cls-5" d="M1093.91,143.13q0-5.5-1.51-8.15c-1-1.76-3-2.65-6.05-2.65h-1.08v-2.16h8.64a13.36,13.36,0,0,1,6.21,1.14,6.22,6.22,0,0,1,3,3.72h.54a16,16,0,0,1,5.24-4.21,16.43,16.43,0,0,1,7.72-1.73q4.32,0,6.49,1.62a16.22,16.22,0,0,1,3.78,4.86l-4.32,3.24a7.15,7.15,0,0,0-3.46-2.43,15.37,15.37,0,0,0-5.19-.81A12.32,12.32,0,0,0,1108,137a11.72,11.72,0,0,0-4.32,3.94v40h-9.72Z"/><path class="cls-5" d="M1139.49,199.3a14.62,14.62,0,0,0,8.7-2.43q3.4-2.43,5.89-8.91l2.16-5.94L1139,139.89q-3-7.77-11.88-8.64v-2.16h9.18q9.4,0,13,8.64l12.32,29.92,13.61-37.48h5.4L1159.48,188q-3.13,8.53-6.92,11.56a15.29,15.29,0,0,1-9.83,3h-3.24Z"/></svg>